<svg id="Layer_1" data-name="Layer 1" xmlns="http://www.w3.org/2000/svg" viewBox="0 0 284.65684 160.20746"><defs><style>.cls-1{fill:#231f20;}</style></defs><title>Logo call for project</title><path class="cls-1" d="M51.69451,60.92048a20.53632,20.53632,0,0,1-8.52344,7.53418A28.73718,28.73718,0,0,1,30.33318,71.149a25.23243,25.23243,0,0,1-13.63769-3.59863A23.05705,23.05705,0,0,1,7.87713,57.27985,37.49282,37.49282,0,0,1,4.82537,41.55817V37.81208A36.60682,36.60682,0,0,1,7.9826,22.0904a23.79969,23.79969,0,0,1,8.92285-10.333A24.80436,24.80436,0,0,1,30.37518,8.13727a27.88128,27.88128,0,0,1,12.92187,2.77832,20.50853,20.50853,0,0,1,8.35547,7.68164,23.50807,23.50807,0,0,1,1.3419,2.5629A6.27349,6.27349,0,0,1,47.22356,29.941h0a6.25245,6.25245,0,0,1-5.96032-4.32052,9.77874,9.77874,0,0,0-2.28063-3.951q-2.67334-2.71436-8.60742-2.71484-6.1875,0-9.17578,4.54589-2.98975,4.54688-2.98829,14.22754v3.83008A38.163,38.163,0,0,0,19.43182,52.1861a11.54266,11.54266,0,0,0,3.87207,6.125,11.30207,11.30207,0,0,0,7.02929,2.02051q5.68214,0,8.48145-2.58887a9.10241,9.10241,0,0,0,2.38152-3.79257,6.24942,6.24942,0,0,1,5.91324-4.184h.11378a6.2587,6.2587,0,0,1,5.74821,8.82374A21.68268,21.68268,0,0,1,51.69451,60.92048Z"/><path class="cls-1" d="M100.9533,65.3404a16.43716,16.43716,0,0,0,1.38867,4.251v.71582H90.81265a1.86148,1.86148,0,0,1-1.75322-1.23592h0a1.83149,1.83149,0,0,0-2.8422-.8339A14.82024,14.82024,0,0,1,76.96111,71.149a17.2674,17.2674,0,0,1-7.8291-1.76758,13.99646,13.99646,0,0,1-5.57715-4.88281,12.53731,12.53731,0,0,1-2.042-7.0293q0-7.19823,5.3457-11.09179,5.34522-3.89209,15.74219-3.89356h3.32482A1.85292,1.85292,0,0,0,87.7785,40.631v-.71446a6.99459,6.99459,0,0,0-1.59961-4.90332,6.1909,6.1909,0,0,0-4.79883-1.74707,6.80719,6.80719,0,0,0-4.52441,1.36816,4.37049,4.37049,0,0,0-.70937.75641,8.225,8.225,0,0,1-6.68613,3.13715h-.8155a4.62818,4.62818,0,0,1-3.7493-7.34163l.04819-.06658A16.291,16.291,0,0,1,71.80486,25.858a25.45121,25.45121,0,0,1,10.249-1.93653A23.793,23.793,0,0,1,91.60857,25.732,14.4495,14.4495,0,0,1,98.133,31.16169a15.8563,15.8563,0,0,1,2.35742,8.83886V59.06794A34.22127,34.22127,0,0,0,100.9533,65.3404Zm-16.248-5.03028a8.16908,8.16908,0,0,0,2.7921-2.47077,1.76267,1.76267,0,0,0,.28119-.9912l0-5.229a1.85293,1.85293,0,0,0-1.85293-1.85292h-2.9879q-4.41944,0-6.58692,1.915a6.33968,6.33968,0,0,0-2.168,4.98828,4.42731,4.42731,0,0,0,1.53614,3.49316,6.00155,6.00155,0,0,0,4.10449,1.34668A9.686,9.686,0,0,0,84.70525,60.31012Z"/><path class="cls-1" d="M111.17107,63.93025V12.03082A6.377,6.377,0,0,1,117.548,5.65387h0a6.377,6.377,0,0,1,6.377,6.377V63.93025a6.37694,6.37694,0,0,1-6.377,6.37694h0A6.37694,6.37694,0,0,1,111.17107,63.93025Z"/><path class="cls-1" d="M134.27947,63.93025V12.03082a6.377,6.377,0,0,1,6.37695-6.37695h0a6.377,6.377,0,0,1,6.37695,6.377V63.93025a6.37694,6.37694,0,0,1-6.37695,6.37694h0A6.37694,6.37694,0,0,1,134.27947,63.93025Z"/><path class="cls-1" d="M192.94451,16.55524a5.39946,5.39946,0,0,0-1.76855,4.33594v.5044a3.36767,3.36767,0,0,0,3.36767,3.36767h2.27247a3.36767,3.36767,0,0,1,3.36767,3.36767v2.5254A3.36767,3.36767,0,0,1,196.8161,34.024h-2.27247a3.36767,3.36767,0,0,0-3.36767,3.36767V66.93952a3.36767,3.36767,0,0,1-3.36767,3.36767h-5.9756a3.36767,3.36767,0,0,1-3.36767-3.36767V37.39166a3.36767,3.36767,0,0,0-3.36767-3.36767h0a3.36767,3.36767,0,0,1-3.36767-3.36767v-2.5254a3.36767,3.36767,0,0,1,3.36767-3.36767h0a3.36767,3.36767,0,0,0,3.36767-3.36767v-.5044a17.56154,17.56154,0,0,1,2.041-8.75488,13.273,13.273,0,0,1,5.85058-5.49317,20.16547,20.16547,0,0,1,8.98731-1.873,23.93114,23.93114,0,0,1,3.40444.24889,3.39187,3.39187,0,0,1,2.92721,3.37417l-.02838,3.314a3.36816,3.36816,0,0,1-3.4232,3.335q-.13407-.00155-.2707-.00154A7.4722,7.4722,0,0,0,192.94451,16.55524Z"/><path class="cls-1" d="M206.89764,35.16071a19.324,19.324,0,0,1,7.42871-8.25,24.35783,24.35783,0,0,1,23.38281,0,19.29214,19.29214,0,0,1,7.4502,8.25,27.10446,27.10446,0,0,1,2.54687,11.9541v.88379a26.96767,26.96767,0,0,1-2.54687,11.93262,19.35814,19.35814,0,0,1-7.42969,8.22949,24.36294,24.36294,0,0,1-23.38184,0,19.30532,19.30532,0,0,1-7.45019-8.22949,26.95418,26.95418,0,0,1-2.54688-11.93262v-.88379A27.09088,27.09088,0,0,1,206.89764,35.16071Zm12.31152,22.24512q2.14746,3.51563,6.86133,3.51465a7.34686,7.34686,0,0,0,6.77637-3.53614,17.94055,17.94055,0,0,0,2.14648-9.38574v-.88379a18.08168,18.08168,0,0,0-2.14648-9.38672q-2.146-3.57714-6.86036-3.57812a7.31433,7.31433,0,0,0-6.77734,3.59863,18.11861,18.11861,0,0,0-2.14648,9.36621v.88379Q217.06268,53.89167,219.20916,57.40583Z"/><path class="cls-1" d="M279.40057,24.06891q.23992.03245.45971.06784a1.52483,1.52483,0,0,1,1.29187,1.52394l-.12889,9.37748a1.5185,1.5185,0,0,1-1.6634,1.48718q-1.5131-.1445-2.86359-.14491-6.5622,0-8.719,4.17132a1.52938,1.52938,0,0,0-.16189.70007V68.78788a1.51931,1.51931,0,0,1-1.51932,1.51931h-9.67327a1.51931,1.51931,0,0,1-1.51932-1.51931V26.28257a1.51932,1.51932,0,0,1,1.51932-1.51932h9.01627a1.51932,1.51932,0,0,1,1.51574,1.41517h0a1.513,1.513,0,0,0,2.56084.99465,11.3669,11.3669,0,0,1,1.9933-1.61,10.6577,10.6577,0,0,1,5.8291-1.6416A15.59159,15.59159,0,0,1,279.40057,24.06891Z"/><path class="cls-1" d="M38.13006,96.46052a17.45747,17.45747,0,0,1,6.04,8.06054,33.23379,33.23379,0,0,1,2.042,12.18555v.88379a32.74346,32.74346,0,0,1-2.0625,11.97558,18.433,18.433,0,0,1-6.04,8.27149,15.49,15.49,0,0,1-9.57617,2.98828,13.90352,13.90352,0,0,1-10.90136-4.799h0l0,16.53764a4.92929,4.92929,0,0,1-4.92929,4.9293H10.30211a5.382,5.382,0,0,1-5.382-5.382V95.01043A.57041.57041,0,0,1,5.49052,94.44H16.70527l.46286,4.37809A13.89767,13.89767,0,0,1,28.4494,93.59821,16.19308,16.19308,0,0,1,38.13006,96.46052Zm-4.58789,20.24609q0-5.89161-2.02051-9.36524a6.82416,6.82416,0,0,0-6.35547-3.47265q-5.51526,0-7.5342,4.20926v18.14117q2.10343,4.37859,7.61818,4.37808a6.69209,6.69209,0,0,0,6.31347-3.57812,19.43777,19.43777,0,0,0,1.97852-9.42871Z"/><path class="cls-1" d="M77.9494,93.74567a11.2,11.2,0,0,1,1.76757.35742l-.168,12.291a33.29185,33.29185,0,0,0-4.5039-.33692q-6.81885,0-8.88184,4.50391v22.2695a7.15335,7.15335,0,0,1-7.15335,7.15335h0a5.55854,5.55854,0,0,1-5.55854-5.55854V99.33652A4.89651,4.89651,0,0,1,58.34786,94.44h7.05759l.37891,5.51465a12.60059,12.60059,0,0,1,4.27246-4.71485,10.661,10.661,0,0,1,5.83008-1.6416A15.61444,15.61444,0,0,1,77.9494,93.74567Z"/><path class="cls-1" d="M84.631,104.83747a19.324,19.324,0,0,1,7.42871-8.25,21.90509,21.90509,0,0,1,11.66015-2.98926,22.09959,22.09959,0,0,1,11.72266,2.98926,19.29211,19.29211,0,0,1,7.45019,8.25,27.10406,27.10406,0,0,1,2.5459,11.9541v.88379a26.96728,26.96728,0,0,1-2.5459,11.93262,19.35805,19.35805,0,0,1-7.42968,8.22949,21.906,21.906,0,0,1-11.65918,2.98828,22.09687,22.09687,0,0,1-11.72266-2.98828A19.30532,19.30532,0,0,1,84.631,129.608a26.954,26.954,0,0,1-2.54688-11.93262v-.88379A27.09074,27.09074,0,0,1,84.631,104.83747Zm12.31152,22.24512q2.14746,3.51563,6.86133,3.51464a7.34685,7.34685,0,0,0,6.77636-3.53613,17.94045,17.94045,0,0,0,2.14649-9.38574v-.88379a18.08156,18.08156,0,0,0-2.14649-9.38672q-2.146-3.57714-6.86035-3.57812a7.31431,7.31431,0,0,0-6.77734,3.59863,18.11856,18.11856,0,0,0-2.14649,9.36621v.88379Q94.79607,123.56842,96.94256,127.08259Z"/><path class="cls-1" d="M147.10565,142.13044q0,7.82958-4.209,12.03808-4.20849,4.20851-11.82715,4.209a29.024,29.024,0,0,1-2.91988-.14175A3.72175,3.72175,0,0,1,124.839,154.514v-2.79387a3.771,3.771,0,0,1,3.836-3.73909l.037,0q5.63966,0,5.64063-5.85058V98.1812A3.74118,3.74118,0,0,1,138.0939,94.44h5.27056a3.74119,3.74119,0,0,1,3.74119,3.74119ZM145.6115,77.96149a6.604,6.604,0,0,1,0,9.38672,8.1164,8.1164,0,0,1-10.2705,0,6.60634,6.60634,0,0,1,0-9.38672,8.11643,8.11643,0,0,1,10.2705,0Z"/><path class="cls-1" d="M196.35369,121.33747h-28.791a11.17928,11.17928,0,0,0,3.53613,6.75488,10.49191,10.49191,0,0,0,7.23926,2.50488,14.82934,14.82934,0,0,0,6.083-1.24218,12.546,12.546,0,0,0,4.77735-3.72461l6.10254,7.02929a18.6133,18.6133,0,0,1-7.00781,5.8086,23.41779,23.41779,0,0,1-10.79688,2.35742,24.06688,24.06688,0,0,1-12.14355-2.94629,20.26187,20.26187,0,0,1-7.91309-7.99805,22.89708,22.89708,0,0,1-2.75684-11.15429v-1.59961a27.75037,27.75037,0,0,1,2.56739-12.16407,19.58077,19.58077,0,0,1,7.4082-8.35546,21.2438,21.2438,0,0,1,11.44922-3.00977A20.92115,20.92115,0,0,1,187.093,96.33454a17.47575,17.47575,0,0,1,6.90332,7.76562,27.68294,27.68294,0,0,1,2.35742,11.84864Zm-12.459-9.51367a8.66822,8.66822,0,0,0-2.042-5.85059q-1.957-2.146-5.82911-2.14648a7.03485,7.03485,0,0,0-5.66211,2.39941,12.96152,12.96152,0,0,0-2.67285,6.6084h16.20606Z"/><path class="cls-1" d="M245.18182,124.03083a15.39658,15.39658,0,0,1-2.52539,8.6709,17.18175,17.18175,0,0,1-6.83985,5.97754,23.31224,23.31224,0,0,1-21.19336-.8418,18.54685,18.54685,0,0,1-7.13476-8.208,28.32174,28.32174,0,0,1-2.37793-11.87012v-1.09472a28.32492,28.32492,0,0,1,2.37793-11.87012,18.6,18.6,0,0,1,7.11328-8.207,21.22789,21.22789,0,0,1,11.55469-2.98926,21.78914,21.78914,0,0,1,9.91211,2.168,15.92349,15.92349,0,0,1,6.71386,6.22949,18.48537,18.48537,0,0,1,2.39942,9.57617H233.26971a8.24224,8.24224,0,0,0-1.97852-5.55664,6.82245,6.82245,0,0,0-5.38769-2.18847q-4.63038,0-6.35547,3.47265a21.24467,21.24467,0,0,0-1.72559,9.36524v1.09472q0,6.01905,1.7041,9.42871,1.70508,3.4087,6.46094,3.40918a7.60118,7.60118,0,0,0,5.26172-1.76757,6.23834,6.23834,0,0,0,2.02051-4.79883Z"/><path class="cls-1" d="M276.19256,130.09235V139.647a22.1135,22.1135,0,0,1-7.49219,1.17871q-13.38428,0-13.38476-13.6377v-23.4873h-6.44043V94.44h6.44043V83.15973h12.71191V94.44h7.66016v9.26074h-7.66016v22.01367q0,2.69385,1.05176,3.6836a5.17288,5.17288,0,0,0,3.57812.98828A18.32034,18.32034,0,0,0,276.19256,130.09235Z"/></svg>